<svg width="128" height="32" fill="none" xmlns="http://www.w3.org/2000/svg"><path d="M54.61 11.029c-.486 0-.923-.022-1.31-.065a8.947 8.947 0 01-1.242-.245c-.508-.13-.928-.299-1.259-.505a2.623 2.623 0 01-.828-.897c-.232-.38-.348-.83-.348-1.352V3.32c0-2.13 1.662-3.195 4.987-3.195.85 0 1.988.12 3.413.359V2.39c-1.282-.304-2.408-.456-3.38-.456-.409 0-.73.011-.961.033-.221.021-.453.076-.696.163-.52.174-.779.56-.779 1.157v4.498c0 .957.89 1.435 2.668 1.435.762 0 1.833-.158 3.214-.473v1.923a17.526 17.526 0 01-3.48.359zM63.484 11.029c-.497 0-.905-.016-1.226-.049a6.534 6.534 0 01-1.027-.196c-.397-.108-.718-.26-.96-.456-.244-.206-.448-.494-.614-.864-.165-.358-.248-.793-.248-1.304V5.83c0-.522.083-.978.248-1.37.166-.39.381-.695.647-.912.231-.185.535-.337.91-.457.387-.13.763-.212 1.127-.244.42-.022.801-.033 1.143-.033.508 0 .912.017 1.21.05.309.02.646.086 1.01.195.398.12.718.282.961.489.254.206.47.5.646.88.166.391.249.858.249 1.402v2.33c0 .49-.083.918-.249 1.288-.154.37-.359.657-.613.864-.22.184-.524.337-.91.456-.376.109-.746.18-1.11.212-.332.033-.73.049-1.194.049zm0-1.483c.453 0 .796-.033 1.027-.098.233-.076.393-.19.481-.342.1-.153.15-.375.15-.669V5.455c0-.435-.117-.74-.349-.913-.232-.174-.668-.26-1.309-.26-.64 0-1.077.086-1.308.26-.232.174-.348.478-.348.913v2.982c0 .294.044.516.132.669.1.152.265.266.497.342.232.065.575.098 1.027.098zM69.445 2.977h2.419v.962c.155-.75.944-1.125 2.37-1.125.75 0 1.319.098 1.706.294.386.184.646.478.778.88.133-.413.387-.712.762-.897.387-.184.967-.277 1.74-.277.696 0 1.231.082 1.607.245.376.152.635.39.779.717.154.326.232.76.232 1.304v5.786h-2.42v-5.46c0-.348-.021-.592-.066-.734a.445.445 0 00-.298-.31c-.143-.054-.397-.08-.762-.08-.453 0-.779.026-.977.08-.188.055-.315.158-.381.31-.056.142-.083.386-.083.734v5.46h-2.419v-5.46c0-.348-.022-.592-.066-.734a.446.446 0 00-.299-.31c-.143-.054-.397-.08-.762-.08-.452 0-.778.026-.977.08-.188.055-.315.158-.381.31-.055.142-.083.386-.083.734v5.46h-2.419V2.977zM83.958 2.977h2.286v.783c.144-.348.425-.593.845-.734.42-.141 1.044-.212 1.872-.212.696 0 1.254.055 1.673.163.431.109.757.283.978.522.21.239.353.505.43.798.078.283.117.674.117 1.174v2.591c0 .783-.116 1.386-.348 1.81-.232.423-.591.722-1.077.896-.475.174-1.127.26-1.955.26-.795 0-1.37-.064-1.723-.195-.354-.13-.58-.386-.68-.766v4.189h-2.418V2.977zm4.075 6.569c.475 0 .834-.033 1.077-.098s.409-.18.497-.342c.088-.163.133-.408.133-.734V5.455c0-.359-.039-.614-.116-.766-.078-.163-.232-.272-.464-.326-.232-.055-.613-.082-1.143-.082-.453 0-.801.038-1.044.114-.232.076-.392.196-.48.359-.078.163-.116.396-.116.7v2.918c0 .326.038.57.116.734.088.163.248.277.48.342.232.065.585.098 1.06.098zM96.837 11.029c-1.027 0-1.75-.18-2.17-.538-.41-.37-.614-.945-.614-1.728V2.977h2.42v5.46c0 .305.027.533.082.685a.6.6 0 00.365.326c.187.065.469.098.844.098.475 0 .823-.027 1.044-.082.221-.065.37-.174.448-.326.077-.152.115-.386.115-.7v-5.46h2.419v7.888h-2.385v-.962c-.177.75-1.033 1.125-2.568 1.125zM107.916 11.029c-.409 0-.751-.016-1.027-.049a3.809 3.809 0 01-.829-.196 2.108 2.108 0 01-.762-.407c-.188-.174-.342-.413-.464-.717a2.807 2.807 0 01-.199-1.092V4.444h-1.623V2.977h1.623V.695h2.419v2.282h2.204v1.467h-2.204V8.16c0 .38.033.669.1.864.066.185.193.32.381.408.187.076.475.114.861.114.155 0 .442-.027.862-.082v1.483a13.17 13.17 0 01-1.342.082zM114.679 11.029c-2.839 0-4.258-.853-4.258-2.559V5.634c0-.989.32-1.706.961-2.151.652-.446 1.651-.669 2.999-.669 1.27 0 2.198.218 2.783.652.596.424.895 1.147.895 2.168v1.923h-5.203v.717c0 .457.166.783.498.978.331.196.927.294 1.789.294.795 0 1.69-.114 2.684-.343v1.516c-.983.207-2.033.31-3.148.31zm1.077-4.825v-1.14a.639.639 0 00-.332-.587c-.209-.13-.568-.196-1.076-.196-.586 0-.978.065-1.177.196a.67.67 0 00-.315.587v1.14h2.9zM119.907 2.977h2.303v1.386c0-.25.105-.495.315-.734a2.43 2.43 0 01.795-.587c.332-.152.657-.228.978-.228h.861v1.972h-.828c-.685 0-1.193.104-1.524.31-.321.207-.481.549-.481 1.027v4.743h-2.419V2.977zM53.334 29.773c-1.027 0-2.297-.098-3.81-.294v-1.94c1.877.283 3.158.424 3.843.424 1.436 0 2.154-.364 2.154-1.092v-.684c0-.348-.105-.614-.315-.799-.199-.185-.563-.277-1.093-.277h-1.26c-2.363 0-3.545-.924-3.545-2.77v-.783c0-.924.392-1.603 1.176-2.038.785-.434 2.027-.651 3.728-.651.884 0 2.005.07 3.363.212v1.89c-1.668-.195-2.816-.293-3.446-.293-.872 0-1.458.07-1.756.212-.32.152-.48.39-.48.717v.75c0 .554.474.83 1.424.83h1.293c1.226 0 2.115.223 2.667.669.552.445.828 1.125.828 2.037v.701c0 1.26-.458 2.114-1.375 2.56a4.875 4.875 0 01-1.474.472c-.53.098-1.171.146-1.922.146zM63.712 29.773c-.42 0-.75-.011-.994-.033a11.88 11.88 0 01-.894-.082 2.926 2.926 0 01-.878-.228 3.16 3.16 0 01-.696-.489c-.453-.37-.68-1-.68-1.89v-2.624c0-.718.166-1.315.498-1.793a1.73 1.73 0 01.53-.473c.243-.152.486-.272.729-.359.199-.065.464-.12.795-.163.331-.043.624-.07.878-.081h.878c.619 0 1.43.098 2.436.293v1.565c-1.138-.26-2.01-.391-2.618-.391-1.116 0-1.673.37-1.673 1.108v2.901c0 .837.613 1.255 1.838 1.255.597 0 1.453-.12 2.569-.358v1.564c-1.006.185-1.911.277-2.718.277zM67.861 18.869h2.42v1.923h-2.42v-1.923zm0 2.852h2.42v7.889h-2.42v-7.89zM76.496 29.773c-2.838 0-4.257-.854-4.257-2.56v-2.835c0-.99.32-1.706.96-2.152.652-.445 1.652-.668 3-.668 1.27 0 2.197.217 2.783.652.596.424.894 1.146.894 2.168V26.3h-5.202v.717c0 .456.166.782.497.978.331.196.928.293 1.79.293.795 0 1.69-.114 2.683-.342v1.516c-.983.206-2.032.31-3.148.31zm1.077-4.825v-1.14c0-.262-.11-.457-.33-.588-.21-.13-.57-.195-1.078-.195-.585 0-.977.065-1.176.195a.67.67 0 00-.315.587v1.141h2.9zM81.725 21.72h2.386v.963c.188-.75 1.043-1.125 2.568-1.125 1.027 0 1.745.185 2.153.554.42.359.63.93.63 1.711v5.787h-2.419v-5.477c0-.304-.033-.532-.1-.684-.055-.153-.176-.261-.364-.326-.176-.066-.453-.098-.828-.098-.475 0-.823.032-1.044.098-.22.054-.37.157-.447.31-.078.151-.116.385-.116.7v5.477h-2.419v-7.89zM95.488 29.773c-.42 0-.751-.011-.994-.033a11.88 11.88 0 01-.895-.082 2.926 2.926 0 01-.878-.228 3.16 3.16 0 01-.696-.489c-.453-.37-.679-1-.679-1.89v-2.624c0-.718.166-1.315.497-1.793a1.73 1.73 0 01.53-.473c.243-.152.486-.272.73-.359.198-.065.463-.12.794-.163.332-.043.624-.07.878-.081h.879c.618 0 1.43.098 2.435.293v1.565c-1.138-.26-2.01-.391-2.618-.391-1.115 0-1.673.37-1.673 1.108v2.901c0 .837.613 1.255 1.839 1.255.597 0 1.452-.12 2.568-.358v1.564c-1.005.185-1.91.277-2.717.277zM103.596 29.773c-2.838 0-4.258-.854-4.258-2.56v-2.835c0-.99.32-1.706.961-2.152.652-.445 1.652-.668 2.999-.668 1.27 0 2.198.217 2.783.652.597.424.895 1.146.895 2.168V26.3h-5.202v.717c0 .456.166.782.497.978.331.196.928.293 1.789.293.795 0 1.69-.114 2.684-.342v1.516c-.983.206-2.032.31-3.148.31zm1.077-4.825v-1.14c0-.262-.11-.457-.331-.588-.21-.13-.569-.195-1.077-.195-.585 0-.978.065-1.176.195a.67.67 0 00-.315.587v1.141h2.899z" fill="#14008D"/><path d="M108.792 28.11h1.723v1.5h-1.723v-1.5zM114.335 29.718c-.332 0-.604-.01-.818-.032a4.366 4.366 0 01-.684-.13 1.749 1.749 0 01-.641-.305 1.605 1.605 0 01-.409-.576c-.11-.239-.165-.529-.165-.87v-1.553c0-.348.055-.652.165-.913.111-.26.254-.463.431-.608a1.89 1.89 0 01.608-.305 3.25 3.25 0 01.751-.162c.279-.015.533-.022.762-.022.338 0 .607.01.806.032.206.015.431.058.674.13.265.08.478.19.64.327.17.137.313.333.431.586.111.261.166.573.166.935v1.554c0 .326-.055.612-.166.858a1.434 1.434 0 01-.409.576 1.739 1.739 0 01-.607.304c-.25.073-.497.12-.74.142a8.294 8.294 0 01-.795.032zm0-.989c.302 0 .53-.021.684-.065.155-.05.262-.127.321-.228.066-.101.099-.25.099-.445v-1.989c0-.29-.077-.493-.232-.608-.154-.116-.445-.174-.872-.174s-.718.058-.873.174c-.154.115-.232.318-.232.608v1.989c0 .195.03.344.089.445a.598.598 0 00.331.228c.155.044.383.065.685.065zM118.309 24.35h1.535v.924c0-.167.07-.33.21-.489.14-.16.316-.29.53-.391.221-.101.438-.152.651-.152h.575v1.314h-.552c-.457 0-.796.07-1.017.207-.213.138-.32.366-.32.684v3.163h-1.612v-5.26zM124.863 32c-.869 0-1.513-.025-1.933-.076v-1.065c.693.094 1.337.141 1.933.141.545 0 .935-.087 1.171-.26.236-.174.353-.464.353-.87v-.847a2.137 2.137 0 01-.386.434c-.125.095-.291.16-.497.196a4.088 4.088 0 01-.828.065c-.523 0-.939-.047-1.249-.141-.309-.102-.533-.265-.673-.49-.14-.23-.21-.55-.21-.955v-2.054c0-.485.062-.858.188-1.12.132-.26.353-.445.662-.553.317-.109.77-.163 1.359-.163.383 0 .677.021.883.065.199.043.35.109.453.196.103.087.221.235.354.445v-.598H128v5.542c0 .746-.261 1.282-.784 1.608-.516.333-1.3.5-2.353.5zm.387-3.27c.316 0 .552-.022.707-.066.162-.043.272-.112.331-.206.066-.102.099-.243.099-.424v-2.119c0-.195-.029-.34-.088-.434-.059-.102-.173-.17-.342-.207-.17-.036-.435-.054-.796-.054-.294 0-.511.021-.651.065a.44.44 0 00-.287.228c-.044.101-.067.254-.067.456v2.01c0 .225.023.388.067.49.051.094.151.163.298.206.147.036.39.054.729.054z" fill="#8681C7"/><path d="M23.166 0L8.834 29.36a.164.164 0 00.062.227.17.17 0 00.084.023h8.396L31.708.248a.162.162 0 000-.166.167.167 0 00-.146-.083h-8.396z" fill="url(#paint0_linear)"/><path d="M16.793.995L8.69 14.805H0L8.445.416A.853.853 0 019.175 0h7.034a.683.683 0 01.584.33.655.655 0 010 .664z" fill="url(#paint1_linear)"/><path d="M0 14.806L8.542 29.36a.502.502 0 00.438.248h8.396L8.69 14.806H0z" fill="url(#paint2_linear)"/><path d="M23.216 0l8.688 14.806h8.689L32.099.332A.67.67 0 0031.523 0h-8.307z" fill="url(#paint3_linear)"/><path d="M40.542 14.806l-8.445 14.39a.837.837 0 01-.73.413h-7.034a.681.681 0 01-.584-.33.655.655 0 010-.664l8.104-13.81h8.689z" fill="url(#paint4_linear)"/><defs><linearGradient id="paint0_linear" x1="13.311" y1="29.671" x2="28.358" y2="3.928" gradientUnits="userSpaceOnUse"><stop stop-color="#8580D2"/><stop offset=".479" stop-color="#4940DA"/><stop offset="1" stop-color="#14008D"/></linearGradient><linearGradient id="paint1_linear" x1="16.817" y1="0" x2=".624" y2="15.486" gradientUnits="userSpaceOnUse"><stop stop-color="#C1A2E9"/><stop offset="1" stop-color="#6E66E9"/></linearGradient><linearGradient id="paint2_linear" x1="2.755" y1="14.833" x2="12.171" y2="29.577" gradientUnits="userSpaceOnUse"><stop offset=".237" stop-color="#5850D7"/><stop offset="1" stop-color="#3122AC"/></linearGradient><linearGradient id="paint3_linear" x1="27.9" y1="0" x2="35.785" y2="14.86" gradientUnits="userSpaceOnUse"><stop stop-color="#C1A2E9"/><stop offset="1" stop-color="#6E66E9"/></linearGradient><linearGradient id="paint4_linear" x1="35.769" y1="14.752" x2="27.719" y2="29.781" gradientUnits="userSpaceOnUse"><stop offset=".237" stop-color="#5850D7"/><stop offset="1" stop-color="#3122AC"/></linearGradient></defs></svg>